<svg height="225" viewBox="0 0 94.52 27.77" width="400" xmlns="http://www.w3.org/2000/svg"><g data-name="Layer 2"><g data-name="Layer 1"><path d="M16.58 25V2.8H2.79V25zM0 27.77V0h19.38v27.77z" fill="#ffd800"/><path fill="#fff" d="M30.93 9.68C29.36 7.2 27.8 5 26.22 2.79H25v9.67h1.33V5.53c1.56 2.5 3.12 4.7 4.7 6.93h1.2V2.79h-1.3zm9.57 2.78l-3.08-9.67H36l-3.3 9.67h1.44L35 9.82h2.91l.76 2.64zm-5.09-3.83c.38-1.27.77-2.44 1.11-3.93.39 1.49.73 2.66 1.09 3.93zm6.65 3.83h1.66V4.09h2.54v-1.3h-6.74v1.3h2.54v8.37zm4.74-9.67h1.64v9.67H46.8zm6.75 9.83c2.53 0 4.1-2.25 4.1-5.13 0-2.71-1.74-4.86-4.1-4.86s-4.1 2.15-4.1 4.86c0 2.88 1.55 5.13 4.1 5.13zm0-8.61c1.64 0 2.33 1.7 2.33 3.48s-.6 3.75-2.33 3.75-2.33-1.9-2.33-3.75S51.91 4 53.55 4zM60 5.53c1.56 2.5 3.12 4.7 4.69 6.93h1.21V2.79h-1.33v6.89C63 7.2 61.43 5 59.86 2.79h-1.2v9.67H60zm8.62 4.29h2.91l.76 2.64h1.85l-3.08-9.67h-1.38l-3.34 9.67h1.43zm1.54-5.12c.39 1.49.73 2.66 1.09 3.93H69c.43-1.27.82-2.44 1.16-3.93zm9.38 6.46h-3.27V2.79h-1.65v9.67h4.92v-1.3zM29.58 23.51a2.44 2.44 0 01-1.16.24c-1.42 0-2.8-1.35-2.8-3.65s1.2-3.59 3-3.59a3.64 3.64 0 011.76.51l.54-1.14a4.08 4.08 0 00-2.35-.75 4.69 4.69 0 00-4.69 4.95c0 2.84 1.79 5.05 4.64 5.05a7.75 7.75 0 002.75-.59v-4h-1.69zm4.82-2.96h2.71v-1.3H34.4v-2.66h2.76V15.3h-4.42v9.66h4.92v-1.29H34.4v-3.12zm7.87-5.42c-2.36 0-4.1 2.16-4.1 4.86 0 2.89 1.57 5.14 4.1 5.14s4.1-2.25 4.1-5.14c0-2.7-1.74-4.86-4.1-4.86zm0 8.62c-1.73 0-2.33-1.91-2.33-3.76s.69-3.48 2.33-3.48 2.33 1.7 2.33 3.49-.6 3.75-2.33 3.75zm10.4-.24a2.44 2.44 0 01-1.16.24c-1.42 0-2.8-1.35-2.8-3.65s1.2-3.59 3-3.59a3.64 3.64 0 011.77.51l.52-1.14a4.08 4.08 0 00-2.35-.75 4.69 4.69 0 00-4.69 4.95c0 2.84 1.79 5.05 4.64 5.05a7.75 7.75 0 002.75-.59v-4h-1.68zm8.75-5.42c0-1.88-1.14-2.79-3-2.79h-2.58V25h1.66v-3.68h.75L59.81 25h1.89l-2-4a3.24 3.24 0 001.72-2.91zm-3.23 2h-.69V16.6h.73a1.41 1.41 0 011.54 1.56 1.72 1.72 0 01-1.58 1.92zm6.88-4.79L61.73 25h1.43l.84-2.67h2.91l.77 2.67h1.85l-3.08-9.7zm-.64 5.84c.39-1.27.78-2.45 1.12-3.94.39 1.49.73 2.67 1.09 3.94zm8.21-5.84h-2.59V25h1.66v-3.68h.75a3.16 3.16 0 003.17-3.23c0-1.88-1.14-2.79-2.99-2.79zm-.24 4.78h-.69V16.6h.75A1.4 1.4 0 0174 18.16a1.72 1.72 0 01-1.6 1.92zm9.25-1.07h-3.43V15.3h-1.65v9.66h1.65v-4.65h3.43v4.65h1.66v-9.64h-1.66v3.69zm3.25-3.71h1.64v9.66H84.9zm7.44 8.45c-1.6 0-3-1.35-3-3.65s1.23-3.59 2.91-3.59a3.46 3.46 0 011.7.54l.52-1.17a4 4 0 00-2.22-.75 4.68 4.68 0 00-4.67 4.95c0 2.84 1.8 5.05 4.64 5.05a4.23 4.23 0 002.18-.66l-.4-1.2a3.18 3.18 0 01-1.66.48z"/></g></g></svg>